<svg xmlns="http://www.w3.org/2000/svg" xmlns:xlink="http://www.w3.org/1999/xlink" viewBox="0 0 188 30" version="1.1" width="100px" height="16px">
    <!-- Generator: Sketch 52.6 (67491) - http://www.bohemiancoding.com/sketch -->
    <title>siemens</title>
    <desc>Created with Sketch.</desc>
    <g id="siemens" stroke="none" stroke-width="1" fill="none" fill-rule="evenodd" fill-color-id="-1" stroke-color-id="-1" recolor-fill="true" recolor-stroke="true">
        <g fill="#FFFFFFFF" fill-rule="nonzero" id="Shape" fill-color-id="0" stroke-color-id="-1" recolor-fill="true" recolor-stroke="true">
            <path d="M27.263,29.076 L35.505,29.076 L35.505,1.441 L27.263,1.441 L27.263,29.076 Z M42.076,29.076 L63.409,29.076 L63.409,23.582 L50.318,23.582 L50.318,17.926 L61.793,17.926 L61.793,12.592 L50.318,12.592 L50.318,6.936 L63.409,6.936 L63.409,1.441 L42.076,1.441 L42.076,29.076 Z M85.957,17.845 L78.684,1.441 L67.937,1.441 L67.937,29.076 L74.563,29.076 L74.563,12.592 L81.836,29.076 L87.25,29.076 L95.088,12.188 L95.088,29.076 L103.33,29.076 L103.33,1.441 L93.552,1.441 L85.957,17.845 Z M155.686,18.41 L145.342,1.441 L136.291,1.441 L136.291,29.076 L142.109,29.076 L142.109,12.027 L152.533,29.076 L161.504,29.076 L161.504,1.441 L155.686,1.441 L155.686,18.41 Z M109.807,29.076 L131.139,29.076 L131.139,23.582 L118.049,23.582 L118.049,17.926 L129.523,17.926 L129.523,12.592 L118.049,12.592 L118.049,6.936 L131.139,6.936 L131.139,1.441 L109.807,1.441 L109.807,29.076 Z M18.378,14.128 C16.035,13.078 12.399,11.219 9.893,10.088 C7.54,9.025 7.469,3.462 21.044,7.583 L21.044,2.331 C18.216,1.361 10.459,-0.498 4.641,2.735 C-1.177,5.967 0.197,13.967 4.641,16.634 C6.58,17.684 9.247,18.654 12.641,20.108 C15.453,21.313 17.166,27.462 1.085,23.26 L1.085,28.674 C4.398,29.886 16.519,31.179 20.074,27.219 C24.514,22.275 22.499,15.825 18.378,14.128 Z M183.682,14.128 C181.338,13.078 177.703,11.219 175.198,10.088 C172.844,9.025 172.774,3.462 186.348,7.583 L186.348,2.331 C183.52,1.361 175.764,-0.498 169.946,2.735 C164.128,5.967 165.501,13.967 169.946,16.634 C171.885,17.684 174.551,18.654 177.946,20.108 C180.757,21.313 182.471,27.462 166.389,23.26 L166.389,28.674 C169.703,29.886 181.825,31.179 185.379,27.219 C189.818,22.275 187.803,15.825 183.682,14.128 Z" fill-color-id="0" stroke-color-id="-1" recolor-fill="true" recolor-stroke="true" fill="#FFFFFFFF"/>
        </g>
    </g>
</svg>